# xmcd
#
# Track frame offsets:
# 150
# 9762
# 20362
# 31107
# 40942
# 50417
# 60445
# 72442
# 81675
# 94950
# 107122
# 118112
# 131460
# 144515
# 154287
# 163122
# 173665
# 185887
# 196152
# 208770
# 220010
# 230847
# 241070
# 250725
# 262477
# 272590
# 283252
# 295320
# 306682
# 315900
# 327170
# 336292
#
# Disc length: 4660 seconds
#
#
# Revision: 2
# Processed by: cddbd v1.5.2PL0 Copyright (c) Steve Scherf et al.
# Submitted via: FreeRIP 2.941 
#
DISCID=e7123220
DTITLE=Dean Martin - Lay Some Happiness On Me   Vol. 1
DYEAR=1900
DGENRE=Vocal
TTITLE0=Come Running Back
TTITLE1=Shades
TTITLE2=One Lonely Boy
TTITLE3=Terrible, Tangle Web
TTITLE4=Don't Let The Blues Make You Bad
TTITLE5=Nobody But A Fool (Would Love You)
TTITLE6=I'm Living In Two Worlds
TTITLE7=Today Is Not The Day
TTITLE8=A Million And One
TTITLE9=A Marschallow World
TTITLE10=Nobody's Baby Again
TTITLE11=It Just Happend That Way
TTITLE12=White Christmas
TTITLE13=Winter Wonderland
TTITLE14=Let It Snow! Let It Snow! Let It Snow!
TTITLE15=Jingle Bells
TTITLE16=The Things We Did Last Summer
TTITLE17=Blue Christmas
TTITLE18=Silent Night
TTITLE19=I'll Bee Home For Christmas
TTITLE20=Silver Bells
TTITLE21=The One I Love (Belongs To Somebody Else)
TTITLE22=Baby, Won't You Please Come Home
TTITLE23=If I Had You
TTITLE24=I've Grown Accustomed To Your Face
TTITLE25=It's The Talk Of The Town
TTITLE26=Just Friends
TTITLE27=S'posin'
TTITLE28=What Can I Say After I Say I'm Sorry
TTITLE29=Home
TTITLE30=I'm Not The Marrying Kind
TTITLE31=Thirty More Miles To San Diego
EXTD=
EXTT0=
EXTT1=
EXTT2=
EXTT3=
EXTT4=
EXTT5=
EXTT6=
EXTT7=
EXTT8=
EXTT9=
EXTT10=
EXTT11=
EXTT12=
EXTT13=
EXTT14=
EXTT15=
EXTT16=
EXTT17=
EXTT18=
EXTT19=
EXTT20=
EXTT21=
EXTT22=
EXTT23=
EXTT24=
EXTT25=
EXTT26=
EXTT27=
EXTT28=
EXTT29=
EXTT30=
EXTT31=
PLAYORDER=
